<svg width="48" height="48" viewBox="0 0 48 48" fill="none" xmlns="http://www.w3.org/2000/svg" xmlns:xlink="http://www.w3.org/1999/xlink">
<path d="M24,44C26.2,44 28,42.2 28,40L20,40C20,42.2 21.78,44 24,44ZM36,32L36,22C36,15.86 32.72,10.72 27,9.36L27,8C27,6.34 25.66,5 24,5C22.34,5 21,6.34 21,8L21,9.36C15.26,10.72 12,15.84 12,22L12,32L8,36L8,38L40,38L40,36L36,32Z" fill="#2F80ED"/>
<circle cx="34" cy="12" r="8" fill="#EB5757" stroke="#FFFFFF" stroke-width="1" stroke-miterlimit="3.999327"/>
</svg>
