<svg width="48" height="50" viewBox="0 0 48 50" fill="none" xmlns="http://www.w3.org/2000/svg" xmlns:xlink="http://www.w3.org/1999/xlink">
<path d="M12.45,34.748C10.556,34.748 8.25,32.441 8.25,30.548L8.25,15.248L7.35,15.248C5.784,15.248 4.5,16.532 4.5,18.098L4.5,43.748L9.984,38.31L30.15,38.31C31.716,38.31 33,36.988 33,35.413L33,34.748L12.45,34.748Z" fill="#8E8E93"/>
<path d="M40.228,4.748L14.053,4.748C12.253,4.748 10.781,6.219 10.781,8.019L10.781,29.216C10.781,31.016 12.253,32.498 14.053,32.498L36.384,32.498L43.5,37.466L43.5,8.019C43.5,6.219 42.028,4.748 40.228,4.748L40.228,4.748Z" fill="#8E8E93"/>
</svg>
