<svg width="44" height="30" viewBox="0 0 44 30" fill="none" xmlns="http://www.w3.org/2000/svg" xmlns:xlink="http://www.w3.org/1999/xlink">
<path d="M30,13.15C33.32,13.15 35.98,10.423 35.98,7.044C35.98,3.665 33.32,0.938 30,0.938C26.68,0.938 24,3.665 24,7.044C24,10.423 26.68,13.15 30,13.15ZM14,13.15C17.32,13.15 19.98,10.423 19.98,7.044C19.98,3.665 17.32,0.938 14,0.938C10.68,0.938 8,3.665 8,7.044C8,10.423 10.68,13.15 14,13.15ZM14,17.221C9.34,17.221 0,19.603 0,24.345L0,29.434L28,29.434L28,24.345C28,19.603 18.66,17.221 14,17.221ZM30,17.221C29.42,17.221 28.76,17.262 28.06,17.323C30.38,19.033 32,21.333 32,24.345L32,29.434L44,29.434L44,24.345C44,19.603 34.66,17.221 30,17.221Z" fill="#8E8E93"/>
</svg>
