<svg width="40" height="36" viewBox="0 0 40 36" fill="none" xmlns="http://www.w3.org/2000/svg" xmlns:xlink="http://www.w3.org/1999/xlink">
<path d="M20.469,7.944L20.469,-0.053L0.5,-0.053L0.5,35.947L39.5,35.947L39.5,7.944L20.469,7.944ZM8.488,31.944L4.494,31.944L4.494,27.941L8.488,27.941L8.488,31.944ZM8.488,23.947L4.494,23.947L4.494,19.944L8.488,19.944L8.488,23.947ZM8.488,15.95L4.494,15.95L4.494,11.947L8.488,11.947L8.488,15.95ZM8.488,7.944L4.494,7.944L4.494,3.941L8.488,3.941L8.488,7.944ZM16.475,31.944L12.481,31.944L12.481,27.941L16.475,27.941L16.475,31.944ZM16.475,23.947L12.481,23.947L12.481,19.944L16.475,19.944L16.475,23.947L16.475,23.947ZM16.475,15.95L12.481,15.95L12.481,11.947L16.475,11.947L16.475,15.95L16.475,15.95ZM16.475,7.944L12.481,7.944L12.481,3.941L16.475,3.941L16.475,7.944ZM35.506,31.944L20.469,31.944L20.469,27.941L24.463,27.941L24.463,23.947L20.469,23.947L20.469,19.944L24.463,19.944L24.463,15.941L20.469,15.941L20.469,11.947L35.506,11.947L35.506,31.944L35.506,31.944ZM31.981,15.95L27.988,15.95L27.988,19.953L31.981,19.953L31.981,15.95L31.981,15.95ZM31.981,23.947L27.988,23.947L27.988,27.95L31.981,27.95L31.981,23.947L31.981,23.947Z" fill="#8E8E93"/>
</svg>
